<svg width="104" height="104" viewBox="0 0 104 104" fill="none" xmlns="http://www.w3.org/2000/svg">
<path d="M99.125 85.02H95.6345V36.5544C95.6345 33.8666 93.4473 31.6794 90.7595 31.6794H79.3195V6.60562C79.3195 4.81325 77.8619 3.35562 76.0695 3.35562H27.9305C26.1381 3.35562 24.6805 4.81325 24.6805 6.60562V31.6777H13.2405C10.5527 31.6777 8.3655 33.865 8.3655 36.5527V85.0184H4.875C4.44402 85.0184 4.0307 85.1896 3.72595 85.4943C3.4212 85.7991 3.25 86.2124 3.25 86.6434V92.6234C3.25 97.1035 6.89488 100.748 11.375 100.748H92.625C97.1051 100.748 100.75 97.1035 100.75 92.6234V86.6434C100.75 86.2124 100.579 85.7991 100.274 85.4943C99.9693 85.1896 99.556 85.0184 99.125 85.0184V85.02ZM27.9305 6.60562H76.0679V60.1412H27.9305V6.60562ZM11.6155 36.5544C11.6155 35.659 12.3435 34.9294 13.2405 34.9294H24.6805V60.1429C24.6805 61.9353 26.1381 63.3929 27.9305 63.3929H76.0679C77.8603 63.3929 79.3179 61.9353 79.3179 60.1429V34.9294H90.7579C91.6549 34.9294 92.3829 35.659 92.3829 36.5544V85.02H11.6155V36.5544ZM97.5 92.625C97.5 95.3127 95.3128 97.5 92.625 97.5H11.375C8.68725 97.5 6.5 95.3127 6.5 92.625V88.27H97.5V92.625Z" fill="url(#paint0_linear_2_124)"/>
<path d="M33.4652 16.3995H70.5363C70.9673 16.3995 71.3806 16.2283 71.6854 15.9236C71.9901 15.6188 72.1613 15.2055 72.1613 14.7745C72.1613 14.3435 71.9901 13.9302 71.6854 13.6255C71.3806 13.3207 70.9673 13.1495 70.5363 13.1495H33.4652C33.0342 13.1495 32.6209 13.3207 32.3162 13.6255C32.0114 13.9302 31.8402 14.3435 31.8402 14.7745C31.8402 15.2055 32.0114 15.6188 32.3162 15.9236C32.6209 16.2283 33.0342 16.3995 33.4652 16.3995Z" fill="url(#paint1_linear_2_124)"/>
<path d="M70.5347 22.4494H63.3831C62.9521 22.4494 62.5388 22.6206 62.2341 22.9253C61.9293 23.2301 61.7581 23.6434 61.7581 24.0744C61.7581 24.5053 61.9293 24.9187 62.2341 25.2234C62.5388 25.5282 62.9521 25.6994 63.3831 25.6994H70.5347C70.9657 25.6994 71.379 25.5282 71.6838 25.2234C71.9885 24.9187 72.1597 24.5053 72.1597 24.0744C72.1597 23.6434 71.9885 23.2301 71.6838 22.9253C71.379 22.6206 70.9657 22.4494 70.5347 22.4494V22.4494Z" fill="url(#paint2_linear_2_124)"/>
<path d="M33.4652 25.6994H56.0397C56.4707 25.6994 56.884 25.5282 57.1888 25.2234C57.4935 24.9187 57.6647 24.5053 57.6647 24.0744C57.6647 23.6434 57.4935 23.2301 57.1888 22.9253C56.884 22.6206 56.4707 22.4494 56.0397 22.4494H33.4652C33.0342 22.4494 32.6209 22.6206 32.3162 22.9253C32.0114 23.2301 31.8402 23.6434 31.8402 24.0744C31.8402 24.5053 32.0114 24.9187 32.3162 25.2234C32.6209 25.5282 33.0342 25.6994 33.4652 25.6994Z" fill="url(#paint3_linear_2_124)"/>
<path d="M70.5347 31.7493H53.9126C53.4816 31.7493 53.0683 31.9205 52.7636 32.2252C52.4588 32.53 52.2876 32.9433 52.2876 33.3743C52.2876 33.8052 52.4588 34.2186 52.7636 34.5233C53.0683 34.8281 53.4816 34.9993 53.9126 34.9993H70.5347C70.9657 34.9993 71.379 34.8281 71.6838 34.5233C71.9885 34.2186 72.1597 33.8052 72.1597 33.3743C72.1597 32.9433 71.9885 32.53 71.6838 32.2252C71.379 31.9205 70.9657 31.7493 70.5347 31.7493Z" fill="url(#paint4_linear_2_124)"/>
<path d="M33.4652 34.9993H45.7892C46.2202 34.9993 46.6335 34.8281 46.9383 34.5233C47.243 34.2186 47.4142 33.8052 47.4142 33.3743C47.4142 32.9433 47.243 32.53 46.9383 32.2252C46.6335 31.9205 46.2202 31.7493 45.7892 31.7493H33.4652C33.0342 31.7493 32.6209 31.9205 32.3162 32.2252C32.0114 32.53 31.8402 32.9433 31.8402 33.3743C31.8402 33.8052 32.0114 34.2186 32.3162 34.5233C32.6209 34.8281 33.0342 34.9993 33.4652 34.9993Z" fill="url(#paint5_linear_2_124)"/>
<path d="M33.4652 44.2991H70.5363C70.9673 44.2991 71.3806 44.1279 71.6854 43.8232C71.9901 43.5184 72.1613 43.1051 72.1613 42.6741C72.1613 42.2432 71.9901 41.8298 71.6854 41.5251C71.3806 41.2203 70.9673 41.0491 70.5363 41.0491H33.4652C33.0342 41.0491 32.6209 41.2203 32.3162 41.5251C32.0114 41.8298 31.8402 42.2432 31.8402 42.6741C31.8402 43.1051 32.0114 43.5184 32.3162 43.8232C32.6209 44.1279 33.0342 44.2991 33.4652 44.2991Z" fill="url(#paint6_linear_2_124)"/>
<path d="M33.4652 53.5974H70.5363C70.9673 53.5974 71.3806 53.4262 71.6854 53.1214C71.9901 52.8167 72.1613 52.4034 72.1613 51.9724C72.1613 51.5414 71.9901 51.1281 71.6854 50.8233C71.3806 50.5186 70.9673 50.3474 70.5363 50.3474H33.4652C33.0342 50.3474 32.6209 50.5186 32.3162 50.8233C32.0114 51.1281 31.8402 51.5414 31.8402 51.9724C31.8402 52.4034 32.0114 52.8167 32.3162 53.1214C32.6209 53.4262 33.0342 53.5974 33.4652 53.5974Z" fill="url(#paint7_linear_2_124)"/>
<defs>
<linearGradient id="paint0_linear_2_124" x1="52" y1="3.35562" x2="52" y2="100.748" gradientUnits="userSpaceOnUse">
<stop stop-color="#0057FF"/>
<stop offset="1" stop-color="#0075FF"/>
</linearGradient>
<linearGradient id="paint1_linear_2_124" x1="52.0008" y1="13.1495" x2="52.0008" y2="16.3995" gradientUnits="userSpaceOnUse">
<stop stop-color="#0057FF"/>
<stop offset="1" stop-color="#0075FF"/>
</linearGradient>
<linearGradient id="paint2_linear_2_124" x1="66.9589" y1="22.4494" x2="66.9589" y2="25.6994" gradientUnits="userSpaceOnUse">
<stop stop-color="#0057FF"/>
<stop offset="1" stop-color="#0075FF"/>
</linearGradient>
<linearGradient id="paint3_linear_2_124" x1="44.7525" y1="22.4494" x2="44.7525" y2="25.6994" gradientUnits="userSpaceOnUse">
<stop stop-color="#0057FF"/>
<stop offset="1" stop-color="#0075FF"/>
</linearGradient>
<linearGradient id="paint4_linear_2_124" x1="62.2237" y1="31.7493" x2="62.2237" y2="34.9993" gradientUnits="userSpaceOnUse">
<stop stop-color="#0057FF"/>
<stop offset="1" stop-color="#0075FF"/>
</linearGradient>
<linearGradient id="paint5_linear_2_124" x1="39.6272" y1="31.7493" x2="39.6272" y2="34.9993" gradientUnits="userSpaceOnUse">
<stop stop-color="#0057FF"/>
<stop offset="1" stop-color="#0075FF"/>
</linearGradient>
<linearGradient id="paint6_linear_2_124" x1="52.0008" y1="41.0491" x2="52.0008" y2="44.2991" gradientUnits="userSpaceOnUse">
<stop stop-color="#0057FF"/>
<stop offset="1" stop-color="#0075FF"/>
</linearGradient>
<linearGradient id="paint7_linear_2_124" x1="52.0008" y1="50.3474" x2="52.0008" y2="53.5974" gradientUnits="userSpaceOnUse">
<stop stop-color="#0057FF"/>
<stop offset="1" stop-color="#0075FF"/>
</linearGradient>
</defs>
</svg>
