<svg width="125" height="125" viewBox="0 0 125 125" fill="none" xmlns="http://www.w3.org/2000/svg">
<path fill-rule="evenodd" clip-rule="evenodd" d="M55.832 18.1484C55.2371 16.9013 55.1021 15.4841 55.4507 14.1471C55.7994 12.8101 56.6094 11.6393 57.7375 10.8415C58.8657 10.0438 60.2395 9.67036 61.6163 9.78727C62.9931 9.90419 64.2842 10.5039 65.2617 11.4805L73.6563 19.8789L73.7734 19.7617C74.8441 18.6898 76.2089 17.9598 77.6948 17.6643C79.1808 17.3688 80.721 17.521 82.1204 18.1017C83.5197 18.6823 84.7152 19.6653 85.5554 20.926C86.3956 22.1868 86.8426 23.6685 86.8398 25.1836C86.8398 27.2148 86.0352 29.1601 84.5977 30.5976L84.4883 30.707L86.9844 33.2031H109.375C110.928 33.2062 112.417 33.8245 113.515 34.9227C114.613 36.0209 115.231 37.5094 115.234 39.0625V89.8437C115.231 91.3968 114.613 92.8853 113.515 93.9835C112.417 95.0817 110.928 95.7 109.375 95.7031H73.9102L74.5742 99.668C77.1008 99.76 79.4932 100.828 81.2482 102.648C83.0032 104.468 83.984 106.898 83.9844 109.426V113.332C83.9844 113.85 83.7786 114.347 83.4123 114.713C83.046 115.079 82.5493 115.285 82.0312 115.285H42.9688C42.4507 115.285 41.954 115.079 41.5877 114.713C41.2214 114.347 41.0156 113.85 41.0156 113.332V109.426C41.016 106.898 41.9968 104.468 43.7518 102.648C45.5068 100.828 47.8992 99.76 50.4258 99.668L51.0898 95.7031H15.625C14.0719 95.7 12.5834 95.0817 11.4852 93.9835C10.387 92.8853 9.76872 91.3968 9.76562 89.8437V39.0625C9.76872 37.5094 10.387 36.0209 11.4852 34.9227C12.5834 33.8245 14.0719 33.2062 15.625 33.2031H45.8359L47.0508 29.5547C47.9136 26.9658 49.3673 24.6133 51.2969 22.6836L55.832 18.1484V18.1484ZM74.2188 103.566H50.7812C49.2272 103.566 47.7369 104.184 46.638 105.283C45.5392 106.381 44.9219 107.872 44.9219 109.426V111.379H80.0781V109.426C80.0786 108.656 79.9274 107.894 79.6332 107.183C79.3389 106.472 78.9073 105.826 78.3631 105.281C77.8189 104.737 77.1728 104.306 76.4616 104.011C75.7505 103.717 74.9884 103.566 74.2188 103.566V103.566ZM54.3906 99.6601H70.6094L69.9531 95.7031H55.0469L54.3906 99.6601V99.6601ZM111.328 87.9414H13.6719V89.8437C13.6719 90.3633 13.8789 90.8594 14.2422 91.2265C14.6101 91.5912 15.107 91.7961 15.625 91.7969H109.375C109.895 91.7969 110.391 91.5898 110.758 91.2265C111.122 90.8586 111.327 90.3618 111.328 89.8437V87.9414ZM90.8906 37.1094L92.8828 39.1016C93.9805 40.2031 94.6016 41.6914 94.6016 43.2461C94.602 44.2363 94.3515 45.2105 93.8735 46.0777C93.3954 46.9449 92.7053 47.6768 91.8678 48.205C91.0302 48.7332 90.0724 49.0405 89.0838 49.0983C88.0953 49.156 87.1082 48.9623 86.2148 48.5351L81.6797 53.0664C79.751 54.9973 77.3982 56.4512 74.8086 57.3125L62.1758 61.5273L61.1172 62.582L70.7852 72.25C71.0217 72.4848 71.1942 72.7763 71.2859 73.0968C71.3777 73.4172 71.3858 73.7559 71.3094 74.0803C71.233 74.4048 71.0746 74.7042 70.8495 74.95C70.6244 75.1958 70.34 75.3798 70.0234 75.4844L61.7383 78.2461C61.3939 78.3609 61.0244 78.3776 60.6711 78.2941C60.3178 78.2106 59.9948 78.0303 59.7383 77.7734L52.832 70.8672L51.4531 72.25C50.3527 73.3468 48.8623 73.9626 47.3086 73.9626C45.7549 73.9626 44.2645 73.3468 43.1641 72.25L32.1172 61.1992C31.0197 60.0999 30.4033 58.61 30.4033 57.0566C30.4033 55.5032 31.0197 54.0133 32.1172 52.914L42.8398 42.1914L44.5312 37.1094H15.625C15.107 37.1101 14.6101 37.315 14.2422 37.6797C13.8776 38.0476 13.6727 38.5445 13.6719 39.0625V84.0351H111.328V39.0625C111.327 38.5445 111.122 38.0476 110.758 37.6797C110.39 37.315 109.893 37.1101 109.375 37.1094H90.8906ZM55.5938 68.1055L61.6445 74.1562L65.7891 72.7773L58.3555 65.3437L55.5938 68.1055V68.1055ZM44.5469 46.0078L34.8789 55.6758C34.5128 56.042 34.3071 56.5387 34.3071 57.0566C34.3071 57.5745 34.5128 58.0712 34.8789 58.4375L45.9258 69.4883C46.294 69.8506 46.79 70.0537 47.3066 70.0537C47.8233 70.0537 48.3192 69.8506 48.6875 69.4883L58.3555 59.8203L44.5469 46.0078ZM58.3555 21.1484L54.0586 25.4453C52.5591 26.9467 51.4291 28.7761 50.7578 30.789L46.7812 42.7187L61.6445 57.5859L73.5742 53.6094C75.5879 52.9376 77.4174 51.8061 78.918 50.3047L83.2148 46.0078L58.3555 21.1484V21.1484ZM90.1211 44.6289C90.4872 44.2626 90.6929 43.7659 90.6929 43.248C90.6929 42.7301 90.4872 42.2334 90.1211 41.8672L62.5 14.2422C62.1317 13.8798 61.6358 13.6767 61.1191 13.6767C60.6025 13.6767 60.1065 13.8798 59.7383 14.2422C59.5564 14.4236 59.4121 14.6391 59.3136 14.8764C59.2152 15.1137 59.1645 15.3681 59.1645 15.625C59.1645 15.8819 59.2152 16.1363 59.3136 16.3736C59.4121 16.6108 59.5564 16.8264 59.7383 17.0078L87.3594 44.6289C87.7276 44.9913 88.2236 45.1944 88.7402 45.1944C89.2569 45.1944 89.7528 44.9913 90.1211 44.6289V44.6289ZM81.7266 27.9453L81.8359 27.8359C82.1844 27.4877 82.4608 27.0742 82.6493 26.6191C82.8379 26.164 82.935 25.6762 82.935 25.1836C82.935 24.691 82.8379 24.2032 82.6493 23.7481C82.4608 23.293 82.1844 22.8795 81.8359 22.5312L81.8281 22.5234C81.4809 22.1754 81.0684 21.8992 80.6143 21.7108C80.1601 21.5224 79.6733 21.4254 79.1816 21.4254C78.69 21.4254 78.2031 21.5224 77.749 21.7108C77.2949 21.8992 76.8824 22.1754 76.5352 22.5234L76.418 22.6406L81.7266 27.9453V27.9453Z" fill="url(#paint0_linear_2_122)"/>
<defs>
<linearGradient id="paint0_linear_2_122" x1="62.5" y1="9.76625" x2="62.5" y2="115.285" gradientUnits="userSpaceOnUse">
<stop stop-color="#0057FF"/>
<stop offset="1" stop-color="#0075FF"/>
</linearGradient>
</defs>
</svg>
