<svg width="57" height="51" viewBox="0 0 57 51" fill="none" xmlns="http://www.w3.org/2000/svg">
<path d="M28.6887 30.39C31.4974 30.39 33.7744 28.1131 33.7744 25.3043C33.7744 22.4956 31.4974 20.2186 28.6887 20.2186C25.88 20.2186 23.603 22.4956 23.603 25.3043C23.603 28.1131 25.88 30.39 28.6887 30.39Z" fill="#61DAFB"/>
<path d="M48.0053 16.9174C47.0238 16.5605 45.9978 16.2036 44.9271 15.8914C45.1948 14.8207 45.4178 13.75 45.5963 12.724C46.5331 6.83527 45.507 2.68642 42.6519 1.08042C41.8043 0.589694 40.8675 0.366638 39.7968 0.366638C36.674 0.366638 32.7036 2.68642 28.6886 6.5676C24.6736 2.68642 20.7032 0.366638 17.5804 0.366638C16.5097 0.366638 15.5729 0.589694 14.7253 1.08042C11.8702 2.73103 10.8441 6.87988 11.7809 12.724C11.9594 13.75 12.1824 14.8207 12.4501 15.8914C11.3794 16.2036 10.3534 16.5159 9.37193 16.9174C3.79553 19.0587 0.761963 22.0031 0.761963 25.3043C0.761963 28.6056 3.84014 31.5499 9.37193 33.6912C10.3534 34.0481 11.3794 34.405 12.4501 34.7173C12.1824 35.788 11.9594 36.8586 11.7809 37.8847C10.8441 43.7734 11.8702 47.9222 14.7253 49.5282C15.5729 50.019 16.5097 50.242 17.5804 50.242C20.7478 50.242 24.7182 47.9222 28.6886 44.041C32.7036 47.9222 36.674 50.242 39.7968 50.242C40.8675 50.242 41.8043 50.019 42.6519 49.5282C45.507 47.8776 46.5331 43.7288 45.5963 37.8847C45.4178 36.8586 45.1948 35.788 44.9271 34.7173C45.9978 34.405 47.0238 34.0927 48.0053 33.6912C53.5817 31.5499 56.6152 28.6056 56.6152 25.3043C56.6152 22.0031 53.5817 19.0587 48.0053 16.9174ZM41.4028 3.31098C43.2319 4.38165 43.8564 7.68288 43.098 12.3671C42.9642 13.3039 42.7411 14.2853 42.4735 15.3114C40.1537 14.7761 37.7001 14.4192 35.1126 14.1961C33.5958 12.0548 32.0344 10.1365 30.473 8.39666C33.7743 5.14004 37.1201 2.90948 39.8414 2.90948C40.4214 2.90948 40.9567 3.04331 41.4028 3.31098ZM36.4063 29.7654C35.6033 31.193 34.6665 32.6206 33.6851 34.0481C32.0344 34.182 30.3838 34.2266 28.6886 34.2266C26.9488 34.2266 25.2981 34.182 23.6921 34.0481C22.7107 32.6206 21.8185 31.193 21.0155 29.7654C20.1679 28.2933 19.3648 26.7765 18.6511 25.3043C19.3648 23.8322 20.1679 22.3154 21.0155 20.8432C21.8185 19.4156 22.7553 17.9881 23.7368 16.5605C25.3874 16.4267 27.038 16.3821 28.7332 16.3821C30.473 16.3821 32.1237 16.4267 33.7297 16.5605C34.7111 17.9881 35.6033 19.4156 36.4063 20.8432C37.254 22.3154 38.057 23.8322 38.7707 25.3043C38.0123 26.7765 37.254 28.2487 36.4063 29.7654ZM40.1091 28.2933C40.7782 29.8547 41.3136 31.3715 41.8043 32.8882C40.2875 33.2451 38.6815 33.5128 36.9863 33.7359C37.5216 32.8882 38.1016 31.996 38.5923 31.0592C39.1276 30.1223 39.6183 29.1855 40.1091 28.2933ZM28.6886 40.3829C27.6179 39.223 26.5919 37.9739 25.6104 36.6802C26.6365 36.7248 27.6625 36.7694 28.6886 36.7694C29.7147 36.7694 30.7407 36.7248 31.7668 36.6802C30.7853 37.9739 29.7593 39.223 28.6886 40.3829ZM20.3909 33.6912C18.6957 33.4682 17.0897 33.2005 15.5729 32.8436C16.0636 31.3715 16.599 29.8101 17.2681 28.2487C17.7588 29.1409 18.2496 30.0777 18.7849 30.9699C19.3202 31.9514 19.8556 32.799 20.3909 33.6912ZM17.2681 22.3154C16.599 20.754 16.0636 19.2372 15.5729 17.7204C17.0897 17.3635 18.6957 17.0959 20.3909 16.8728C19.8556 17.7204 19.2756 18.6126 18.7849 19.5495C18.2496 20.4863 17.7588 21.4231 17.2681 22.3154ZM28.6886 10.2257C29.7593 11.3856 30.7853 12.6347 31.7668 13.9285C30.7407 13.8838 29.7147 13.8392 28.6886 13.8392C27.6625 13.8392 26.6365 13.8838 25.6104 13.9285C26.5919 12.6347 27.6179 11.3856 28.6886 10.2257ZM38.5923 19.5941L36.9863 16.9174C38.6815 17.1405 40.2875 17.4081 41.8043 17.765C41.3136 19.2372 40.7782 20.7986 40.1091 22.36C39.6183 21.4231 39.1276 20.4863 38.5923 19.5941ZM14.2792 12.3671C13.5208 7.68288 14.1453 4.38165 15.9744 3.31098C16.4205 3.04331 16.9558 2.90948 17.5358 2.90948C20.2125 2.90948 23.5583 5.09543 26.9041 8.39666C25.3428 10.0919 23.7814 12.0548 22.2646 14.1961C19.6771 14.4192 17.2235 14.8207 14.9037 15.3114C14.6361 14.2853 14.4576 13.3039 14.2792 12.3671ZM3.26019 25.3043C3.26019 23.2076 5.80303 20.977 10.2642 19.3264C11.1564 18.9695 12.1378 18.6572 13.1193 18.3896C13.8331 20.6201 14.7253 22.9845 15.7959 25.3489C14.7253 27.7133 13.7884 30.0331 13.1193 32.2637C6.96292 30.4792 3.26019 27.8026 3.26019 25.3043ZM15.9744 47.2977C14.1453 46.227 13.5208 42.9258 14.2792 38.2416C14.413 37.3047 14.6361 36.3233 14.9037 35.2972C17.2235 35.8326 19.6771 36.1895 22.2646 36.4125C23.7814 38.5539 25.3428 40.4721 26.9041 42.212C23.6029 45.4686 20.2571 47.6992 17.5358 47.6992C16.9558 47.6992 16.4205 47.5653 15.9744 47.2977ZM43.098 38.2416C43.8564 42.9258 43.2319 46.227 41.4028 47.2977C40.9567 47.5653 40.4214 47.6992 39.8414 47.6992C37.1647 47.6992 33.8189 45.5132 30.473 42.212C32.0344 40.5168 33.5958 38.5539 35.1126 36.4125C37.7001 36.1895 40.1537 35.788 42.4735 35.2972C42.7411 36.3233 42.9196 37.3047 43.098 38.2416ZM47.113 31.2822C46.2208 31.6391 45.2394 31.9514 44.2579 32.2191C43.5441 29.9885 42.6519 27.6241 41.5812 25.2597C42.6519 22.8953 43.5888 20.5755 44.2579 18.345C50.4143 20.1294 54.117 22.8061 54.117 25.3043C54.117 27.4011 51.5296 29.6316 47.113 31.2822Z" fill="#61DAFB"/>
</svg>
