<svg width="118" height="118" viewBox="0 0 118 118" fill="none" xmlns="http://www.w3.org/2000/svg">
<path d="M86.6562 3.6875H9.21875C7.75312 3.69188 6.34876 4.27604 5.3124 5.3124C4.27604 6.34876 3.69188 7.75312 3.6875 9.21875V86.6562C3.69188 88.1219 4.27604 89.5262 5.3124 90.5626C6.34876 91.599 7.75312 92.1831 9.21875 92.1875H44.25V88.5H9.21875C8.72976 88.5 8.26079 88.3057 7.91502 87.96C7.56925 87.6142 7.375 87.1452 7.375 86.6562V22.125H88.5V44.25H92.1875V9.21875C92.1831 7.75312 91.599 6.34876 90.5626 5.3124C89.5262 4.27604 88.1219 3.69188 86.6562 3.6875V3.6875ZM88.5 18.4375H7.375V9.21875C7.375 8.72976 7.56925 8.26079 7.91502 7.91502C8.26079 7.56925 8.72976 7.375 9.21875 7.375H86.6562C87.1452 7.375 87.6142 7.56925 87.96 7.91502C88.3057 8.26079 88.5 8.72976 88.5 9.21875V18.4375Z" fill="url(#paint0_linear_1_100)"/>
<path d="M11.0625 11.0625H14.75V14.75H11.0625V11.0625Z" fill="url(#paint1_linear_1_100)"/>
<path d="M18.4375 11.0625H22.125V14.75H18.4375V11.0625Z" fill="url(#paint2_linear_1_100)"/>
<path d="M25.8125 11.0625H29.5V14.75H25.8125V11.0625Z" fill="url(#paint3_linear_1_100)"/>
<path d="M81.125 64.5313C77.8431 64.5312 74.6348 65.5045 71.906 67.3278C69.1772 69.1511 67.0503 71.7427 65.7944 74.7749C64.5384 77.807 64.2098 81.1434 64.8501 84.3623C65.4904 87.5812 67.0708 90.5379 69.3914 92.8586C71.7121 95.1792 74.6688 96.7596 77.8877 97.3999C81.1066 98.0402 84.443 97.7116 87.4752 96.4556C90.5073 95.1997 93.0989 93.0728 94.9222 90.344C96.7455 87.6152 97.7187 84.4069 97.7187 81.125C97.7139 76.7256 95.964 72.5077 92.8532 69.3968C89.7423 66.286 85.5244 64.5361 81.125 64.5313V64.5313ZM81.125 94.0312C78.5724 94.0313 76.0771 93.2743 73.9547 91.8562C71.8322 90.438 70.178 88.4223 69.2012 86.064C68.2243 83.7057 67.9687 81.1107 68.4667 78.6071C68.9647 76.1036 70.1939 73.8039 71.9989 71.9989C73.8039 70.1939 76.1036 68.9647 78.6071 68.4667C81.1107 67.9687 83.7057 68.2243 86.064 69.2012C88.4223 70.178 90.438 71.8322 91.8562 73.9547C93.2743 76.0771 94.0312 78.5724 94.0312 81.125C94.0269 84.5466 92.6657 87.8268 90.2462 90.2462C87.8268 92.6657 84.5466 94.0269 81.125 94.0312Z" fill="url(#paint4_linear_1_100)"/>
<path d="M112.731 73.7684L105.527 72.7396C105.185 71.7321 104.78 70.7469 104.316 69.7896L108.674 63.9781C108.94 63.6234 109.069 63.1848 109.038 62.7425C109.007 62.3003 108.818 61.8841 108.505 61.5702L100.68 53.7453C100.366 53.4323 99.9497 53.2428 99.5075 53.2117C99.0652 53.1805 98.6266 53.3097 98.2719 53.5757L92.4567 57.9343C91.4994 57.4697 90.5142 57.0651 89.5067 56.723L88.4779 49.5194C88.415 49.0809 88.1962 48.6796 87.8617 48.3892C87.5272 48.0987 87.0993 47.9383 86.6562 47.9375H75.5938C75.1501 47.9374 74.7213 48.0974 74.386 48.3879C74.0507 48.6785 73.8314 49.0803 73.7684 49.5194L72.7396 56.723C71.7321 57.0651 70.7469 57.4697 69.7896 57.9343L63.9781 53.5757C63.6234 53.3097 63.1848 53.1805 62.7425 53.2117C62.3003 53.2428 61.8841 53.4323 61.5702 53.7453L53.7453 61.5702C53.4323 61.8841 53.2428 62.3003 53.2117 62.7425C53.1805 63.1848 53.3097 63.6234 53.5757 63.9781L57.9343 69.7933C57.4697 70.7506 57.0651 71.7358 56.723 72.7433L49.5194 73.7721C49.0809 73.835 48.6796 74.0538 48.3892 74.3883C48.0987 74.7228 47.9383 75.1507 47.9375 75.5938V86.6562C47.9374 87.0999 48.0974 87.5287 48.3879 87.864C48.6785 88.1993 49.0803 88.4186 49.5194 88.4816L56.723 89.5104C57.0652 90.5179 57.4698 91.5031 57.9343 92.4604L53.5757 98.2719C53.3097 98.6266 53.1805 99.0652 53.2117 99.5075C53.2428 99.9497 53.4323 100.366 53.7453 100.68L61.5702 108.505C61.8841 108.818 62.3003 109.007 62.7425 109.038C63.1848 109.069 63.6234 108.94 63.9781 108.674L69.7915 104.316C70.7487 104.78 71.734 105.185 72.7415 105.527L73.7703 112.731C73.8332 113.169 74.0522 113.571 74.3871 113.861C74.722 114.152 75.1504 114.312 75.5938 114.312H86.6562C87.0999 114.313 87.5287 114.153 87.864 113.862C88.1993 113.571 88.4186 113.17 88.4816 112.731L89.5104 105.527C90.5179 105.185 91.5031 104.78 92.4604 104.316L98.2719 108.674C98.6266 108.94 99.0652 109.069 99.5075 109.038C99.9497 109.007 100.366 108.818 100.68 108.505L108.505 100.68C108.818 100.366 109.007 99.9497 109.038 99.5075C109.069 99.0652 108.94 98.6266 108.674 98.2719L104.316 92.4585C104.78 91.5013 105.185 90.516 105.527 89.5085L112.731 88.4797C113.169 88.4168 113.571 88.1978 113.861 87.8629C114.152 87.528 114.312 87.0996 114.312 86.6562V75.5938C114.313 75.1501 114.153 74.7213 113.862 74.386C113.571 74.0507 113.17 73.8314 112.731 73.7684ZM110.625 85.0577L103.858 86.022C103.508 86.0723 103.179 86.2225 102.912 86.4547C102.644 86.6868 102.449 86.9911 102.35 87.3311C101.907 88.868 101.297 90.3518 100.53 91.7561C100.36 92.0668 100.283 92.42 100.308 92.7735C100.333 93.127 100.46 93.4657 100.672 93.7492L104.766 99.2085L99.2048 104.769L93.7455 100.669C93.462 100.456 93.1233 100.33 92.7698 100.304C92.4163 100.279 92.0631 100.356 91.7524 100.527C90.3481 101.293 88.8643 101.903 87.3274 102.347C86.9874 102.446 86.6831 102.641 86.451 102.908C86.2188 103.176 86.0686 103.504 86.0183 103.855L85.0577 110.625H77.1923L76.228 103.858C76.1777 103.508 76.0275 103.179 75.7953 102.912C75.5632 102.644 75.2589 102.449 74.9189 102.35C73.382 101.907 71.8982 101.297 70.4939 100.53C70.1832 100.36 69.83 100.283 69.4765 100.308C69.123 100.333 68.7843 100.46 68.5008 100.672L63.0415 104.766L57.4808 99.2048L61.5739 93.7455C61.7866 93.462 61.9131 93.1233 61.9383 92.7698C61.9634 92.4163 61.8862 92.0631 61.7158 91.7524C60.9498 90.3481 60.3395 88.8643 59.8961 87.3274C59.7969 86.9874 59.602 86.6831 59.3346 86.451C59.0671 86.2188 58.7384 86.0686 58.3879 86.0183L51.625 85.0577V77.1923L58.3916 76.228C58.7421 76.1777 59.0708 76.0275 59.3382 75.7953C59.6057 75.5632 59.8006 75.2589 59.8997 74.9189C60.3428 73.3816 60.9536 71.8976 61.7214 70.4939C61.8915 70.183 61.9684 69.8297 61.9429 69.4762C61.9174 69.1227 61.7905 68.7841 61.5776 68.5008L57.4844 63.0415L63.0452 57.4808L68.5045 61.5739C68.7878 61.7869 69.1264 61.9137 69.4799 61.9392C69.8334 61.9647 70.1867 61.8878 70.4976 61.7177C71.9013 60.95 73.3853 60.3391 74.9226 59.8961C75.2626 59.7969 75.5669 59.602 75.799 59.3346C76.0312 59.0671 76.1814 58.7384 76.2317 58.3879L77.1923 51.625H85.0577L86.022 58.3916C86.0723 58.7421 86.2225 59.0708 86.4547 59.3382C86.6868 59.6057 86.9911 59.8006 87.3311 59.8997C88.8684 60.3428 90.3524 60.9536 91.7561 61.7214C92.067 61.8915 92.4203 61.9684 92.7738 61.9429C93.1273 61.9174 93.4659 61.7905 93.7492 61.5776L99.2085 57.4844L104.769 63.0452L100.669 68.5045C100.456 68.7878 100.329 69.1264 100.303 69.4799C100.278 69.8334 100.355 70.1867 100.525 70.4976C101.293 71.9013 101.904 73.3853 102.347 74.9226C102.446 75.2626 102.641 75.5669 102.908 75.799C103.176 76.0312 103.504 76.1814 103.855 76.2317L110.621 77.196L110.625 85.0577Z" fill="url(#paint5_linear_1_100)"/>
<path d="M79.2812 55.3125H82.9688V59H79.2812V55.3125Z" fill="url(#paint6_linear_1_100)"/>
<path d="M61.5698 64.1772L64.1772 61.5698L66.7847 64.1772L64.1772 66.7847L61.5698 64.1772Z" fill="url(#paint7_linear_1_100)"/>
<path d="M55.3125 79.2812H59V82.9688H55.3125V79.2812Z" fill="url(#paint8_linear_1_100)"/>
<path d="M61.5693 98.0714L64.1767 95.464L66.7842 98.0714L64.1767 100.679L61.5693 98.0714Z" fill="url(#paint9_linear_1_100)"/>
<path d="M79.2812 103.25H82.9688V106.938H79.2812V103.25Z" fill="url(#paint10_linear_1_100)"/>
<path d="M95.4653 98.0728L98.0728 95.4653L100.68 98.0728L98.0728 100.68L95.4653 98.0728Z" fill="url(#paint11_linear_1_100)"/>
<path d="M103.25 79.2812H106.938V82.9688H103.25V79.2812Z" fill="url(#paint12_linear_1_100)"/>
<path d="M95.4658 64.1786L98.0733 61.5711L100.681 64.1786L98.0733 66.786L95.4658 64.1786Z" fill="url(#paint13_linear_1_100)"/>
<path d="M41.2631 55.6997L35.0312 53.9112V51.5697C36.1738 50.7214 37.1022 49.6177 37.7425 48.3469C38.3827 47.076 38.717 45.673 38.7188 44.25V42.4062H42.4062V38.7187H40.3966C40.1212 37.1101 39.4942 35.582 38.5604 34.2435C37.6266 32.9049 36.409 31.7889 34.9944 30.975C34.9057 29.5781 34.2882 28.2674 33.2676 27.3095C32.2469 26.3516 30.8997 25.8184 29.5 25.8184C28.1003 25.8184 26.7531 26.3516 25.7324 27.3095C24.7118 28.2674 24.0943 29.5781 24.0056 30.975C22.591 31.7889 21.3734 32.9049 20.4396 34.2435C19.5058 35.582 18.8788 37.1101 18.6034 38.7187H16.5938V42.4062H20.2812V44.25C20.283 45.673 20.6173 47.076 21.2575 48.3469C21.8978 49.6177 22.8262 50.7214 23.9688 51.5697V53.9112L17.7553 55.6997C15.8291 56.2525 14.1348 57.4164 12.9276 59.016C11.7205 60.6156 11.0659 62.5642 11.0625 64.5681V71.9062C11.0625 72.3952 11.2568 72.8642 11.6025 73.21C11.9483 73.5557 12.4173 73.75 12.9062 73.75H46.0938C46.5827 73.75 47.0517 73.5557 47.3975 73.21C47.7432 72.8642 47.9375 72.3952 47.9375 71.9062V64.5681C47.9344 62.5668 47.2821 60.6204 46.0786 59.0213C44.8752 57.4222 43.1854 56.2567 41.2631 55.6997ZM35.0312 35.695C35.7933 36.5621 36.3369 37.5988 36.6169 38.7187H35.0312V35.695ZM27.6562 31.3437C27.6562 30.8547 27.8505 30.3858 28.1963 30.04C28.542 29.6942 29.011 29.5 29.5 29.5C29.989 29.5 30.458 29.6942 30.8037 30.04C31.1495 30.3858 31.3438 30.8547 31.3438 31.3437V38.7187H27.6562V31.3437ZM35.0312 42.4062V44.25C35.0312 45.717 34.4485 47.1239 33.4112 48.1612C32.3739 49.1985 30.967 49.7812 29.5 49.7812C28.033 49.7812 26.6261 49.1985 25.5888 48.1612C24.5515 47.1239 23.9688 45.717 23.9688 44.25V42.4062H35.0312ZM35.0312 57.7647V60.3275L32.4869 59.6822L33.9803 57.4512L35.0312 57.7647ZM31.3438 53.2844V54.7594L29.5 57.525L27.6562 54.7594V53.2844C28.8731 53.5302 30.1269 53.5302 31.3438 53.2844ZM22.3831 38.7187C22.6631 37.5988 23.2067 36.5621 23.9688 35.695V38.7187H22.3831ZM23.9688 57.7462L25.0197 57.4512L26.5131 59.6822L23.9688 60.3275V57.7462ZM44.25 70.0625H14.75V64.5681C14.751 63.3641 15.1437 62.1931 15.8688 61.2319C16.5939 60.2706 17.6119 59.5714 18.7694 59.2397L20.2812 58.8156V62.6875C20.2788 62.9303 20.3248 63.1712 20.4166 63.396C20.5084 63.6208 20.6441 63.825 20.8158 63.9967C20.9875 64.1684 21.1917 64.3041 21.4165 64.3959C21.6413 64.4877 21.8822 64.5337 22.125 64.5312C22.2742 64.531 22.4228 64.5125 22.5675 64.4759L29.5 62.7428L36.4325 64.4759C36.5772 64.5125 36.7258 64.531 36.875 64.5312C37.1178 64.5337 37.3587 64.4877 37.5835 64.3959C37.8083 64.3041 38.0125 64.1684 38.1842 63.9967C38.3559 63.825 38.4916 63.6208 38.5834 63.396C38.6752 63.1712 38.7212 62.9303 38.7188 62.6875V58.8156L40.2491 59.2397C41.4026 59.5755 42.4161 60.2764 43.1375 61.2372C43.8589 62.1979 44.2492 63.3667 44.25 64.5681V70.0625Z" fill="url(#paint14_linear_1_100)"/>
<path d="M47.9375 29.5H55.3125V33.1875H47.9375V29.5Z" fill="url(#paint15_linear_1_100)"/>
<path d="M59 29.5H73.75V33.1875H59V29.5Z" fill="url(#paint16_linear_1_100)"/>
<path d="M55.3125 36.875H62.6875V40.5625H55.3125V36.875Z" fill="url(#paint17_linear_1_100)"/>
<path d="M66.375 36.875H81.125V40.5625H66.375V36.875Z" fill="url(#paint18_linear_1_100)"/>
<path d="M51.625 44.25H55.3125V47.9375H51.625V44.25Z" fill="url(#paint19_linear_1_100)"/>
<path d="M59 44.25H70.0625V47.9375H59V44.25Z" fill="url(#paint20_linear_1_100)"/>
<defs>
<linearGradient id="paint0_linear_1_100" x1="47.9375" y1="3.6875" x2="47.9375" y2="92.1875" gradientUnits="userSpaceOnUse">
<stop stop-color="#0057FF"/>
<stop offset="1" stop-color="#0075FF"/>
</linearGradient>
<linearGradient id="paint1_linear_1_100" x1="12.9062" y1="11.0625" x2="12.9062" y2="14.75" gradientUnits="userSpaceOnUse">
<stop stop-color="#0057FF"/>
<stop offset="1" stop-color="#0075FF"/>
</linearGradient>
<linearGradient id="paint2_linear_1_100" x1="20.2812" y1="11.0625" x2="20.2812" y2="14.75" gradientUnits="userSpaceOnUse">
<stop stop-color="#0057FF"/>
<stop offset="1" stop-color="#0075FF"/>
</linearGradient>
<linearGradient id="paint3_linear_1_100" x1="27.6562" y1="11.0625" x2="27.6562" y2="14.75" gradientUnits="userSpaceOnUse">
<stop stop-color="#0057FF"/>
<stop offset="1" stop-color="#0075FF"/>
</linearGradient>
<linearGradient id="paint4_linear_1_100" x1="81.125" y1="64.5312" x2="81.125" y2="97.7188" gradientUnits="userSpaceOnUse">
<stop stop-color="#0057FF"/>
<stop offset="1" stop-color="#0075FF"/>
</linearGradient>
<linearGradient id="paint5_linear_1_100" x1="81.125" y1="47.9375" x2="81.125" y2="114.312" gradientUnits="userSpaceOnUse">
<stop stop-color="#0057FF"/>
<stop offset="1" stop-color="#0075FF"/>
</linearGradient>
<linearGradient id="paint6_linear_1_100" x1="81.125" y1="55.3125" x2="81.125" y2="59" gradientUnits="userSpaceOnUse">
<stop stop-color="#0057FF"/>
<stop offset="1" stop-color="#0075FF"/>
</linearGradient>
<linearGradient id="paint7_linear_1_100" x1="62.8735" y1="62.8735" x2="65.481" y2="65.481" gradientUnits="userSpaceOnUse">
<stop stop-color="#0057FF"/>
<stop offset="1" stop-color="#0075FF"/>
</linearGradient>
<linearGradient id="paint8_linear_1_100" x1="57.1562" y1="79.2812" x2="57.1562" y2="82.9688" gradientUnits="userSpaceOnUse">
<stop stop-color="#0057FF"/>
<stop offset="1" stop-color="#0075FF"/>
</linearGradient>
<linearGradient id="paint9_linear_1_100" x1="62.873" y1="96.7677" x2="65.4804" y2="99.3752" gradientUnits="userSpaceOnUse">
<stop stop-color="#0057FF"/>
<stop offset="1" stop-color="#0075FF"/>
</linearGradient>
<linearGradient id="paint10_linear_1_100" x1="81.125" y1="103.25" x2="81.125" y2="106.938" gradientUnits="userSpaceOnUse">
<stop stop-color="#0057FF"/>
<stop offset="1" stop-color="#0075FF"/>
</linearGradient>
<linearGradient id="paint11_linear_1_100" x1="96.769" y1="96.769" x2="99.3765" y2="99.3765" gradientUnits="userSpaceOnUse">
<stop stop-color="#0057FF"/>
<stop offset="1" stop-color="#0075FF"/>
</linearGradient>
<linearGradient id="paint12_linear_1_100" x1="105.094" y1="79.2812" x2="105.094" y2="82.9688" gradientUnits="userSpaceOnUse">
<stop stop-color="#0057FF"/>
<stop offset="1" stop-color="#0075FF"/>
</linearGradient>
<linearGradient id="paint13_linear_1_100" x1="96.7696" y1="62.8748" x2="99.377" y2="65.4823" gradientUnits="userSpaceOnUse">
<stop stop-color="#0057FF"/>
<stop offset="1" stop-color="#0075FF"/>
</linearGradient>
<linearGradient id="paint14_linear_1_100" x1="29.5" y1="25.8184" x2="29.5" y2="73.75" gradientUnits="userSpaceOnUse">
<stop stop-color="#0057FF"/>
<stop offset="1" stop-color="#0075FF"/>
</linearGradient>
<linearGradient id="paint15_linear_1_100" x1="51.625" y1="29.5" x2="51.625" y2="33.1875" gradientUnits="userSpaceOnUse">
<stop stop-color="#0057FF"/>
<stop offset="1" stop-color="#0075FF"/>
</linearGradient>
<linearGradient id="paint16_linear_1_100" x1="66.375" y1="29.5" x2="66.375" y2="33.1875" gradientUnits="userSpaceOnUse">
<stop stop-color="#0057FF"/>
<stop offset="1" stop-color="#0075FF"/>
</linearGradient>
<linearGradient id="paint17_linear_1_100" x1="59" y1="36.875" x2="59" y2="40.5625" gradientUnits="userSpaceOnUse">
<stop stop-color="#0057FF"/>
<stop offset="1" stop-color="#0075FF"/>
</linearGradient>
<linearGradient id="paint18_linear_1_100" x1="73.75" y1="36.875" x2="73.75" y2="40.5625" gradientUnits="userSpaceOnUse">
<stop stop-color="#0057FF"/>
<stop offset="1" stop-color="#0075FF"/>
</linearGradient>
<linearGradient id="paint19_linear_1_100" x1="53.4688" y1="44.25" x2="53.4688" y2="47.9375" gradientUnits="userSpaceOnUse">
<stop stop-color="#0057FF"/>
<stop offset="1" stop-color="#0075FF"/>
</linearGradient>
<linearGradient id="paint20_linear_1_100" x1="64.5312" y1="44.25" x2="64.5312" y2="47.9375" gradientUnits="userSpaceOnUse">
<stop stop-color="#0057FF"/>
<stop offset="1" stop-color="#0075FF"/>
</linearGradient>
</defs>
</svg>
