<svg width="94" height="114" viewBox="0 0 94 114" fill="none" xmlns="http://www.w3.org/2000/svg">
<path d="M92.5433 103.157L81.1433 91.7567C80.7871 91.4004 80.3039 91.2001 79.8 91.2H22.8V87.4C22.8 85.8883 22.1995 84.4385 21.1305 83.3695C20.0616 82.3005 18.6117 81.7 17.1 81.7H5.7C5.19609 81.7 4.71282 81.4998 4.3565 81.1435C4.00018 80.7872 3.8 80.3039 3.8 79.8C3.8 79.2961 4.00018 78.8128 4.3565 78.4565C4.71282 78.1002 5.19609 77.9 5.7 77.9H17.1C18.6117 77.9 20.0616 77.2995 21.1305 76.2305C22.1995 75.1615 22.8 73.7117 22.8 72.2V68.4H36.1V76H28.5C27.9961 76 27.5128 76.2002 27.1565 76.5565C26.8002 76.9128 26.6 77.3961 26.6 77.9V85.5C26.6 86.0039 26.8002 86.4872 27.1565 86.8435C27.5128 87.1998 27.9961 87.4 28.5 87.4H66.5C67.0039 87.4 67.4872 87.1998 67.8435 86.8435C68.1998 86.4872 68.4 86.0039 68.4 85.5V77.9C68.4 77.3961 68.1998 76.9128 67.8435 76.5565C67.4872 76.2002 67.0039 76 66.5 76H58.9V68.4H85.5C87.0117 68.4 88.4615 67.7995 89.5305 66.7305C90.5995 65.6616 91.2 64.2117 91.2 62.7V13.3C91.2 11.7883 90.5995 10.3385 89.5305 9.2695C88.4615 8.20054 87.0117 7.60001 85.5 7.60001H70.3V11.4H85.5C86.0039 11.4 86.4872 11.6002 86.8435 11.9565C87.1998 12.3128 87.4 12.7961 87.4 13.3V53.2H7.6V13.3C7.6 12.7961 7.80018 12.3128 8.1565 11.9565C8.51282 11.6002 8.99609 11.4 9.5 11.4H24.7V7.60001H9.5C7.98827 7.60001 6.53845 8.20054 5.46949 9.2695C4.40053 10.3385 3.8 11.7883 3.8 13.3V62.7C3.8 64.2117 4.40053 65.6616 5.46949 66.7305C6.53845 67.7995 7.98827 68.4 9.5 68.4H19V72.2C19 72.7039 18.7998 73.1872 18.4435 73.5435C18.0872 73.8998 17.6039 74.1 17.1 74.1H5.7C4.18827 74.1 2.73845 74.7005 1.66949 75.7695C0.600534 76.8385 0 78.2883 0 79.8C0 81.3117 0.600534 82.7615 1.66949 83.8305C2.73845 84.8995 4.18827 85.5 5.7 85.5H17.1C17.6039 85.5 18.0872 85.7002 18.4435 86.0565C18.7998 86.4128 19 86.8961 19 87.4V91.2H15.2C14.6961 91.2001 14.2129 91.4004 13.8567 91.7567L2.4567 103.157C2.10036 103.513 1.90011 103.996 1.9 104.5V110.2C1.9 111.208 2.30036 112.174 3.01299 112.887C3.72563 113.6 4.69218 114 5.7 114H89.3C90.3078 114 91.2744 113.6 91.987 112.887C92.6996 112.174 93.1 111.208 93.1 110.2V104.5C93.0999 103.996 92.8996 103.513 92.5433 103.157V103.157ZM64.6 83.6H30.4V79.8H64.6V83.6ZM55.1 76H39.9V68.4H55.1V76ZM7.6 62.7V57H87.4V62.7C87.4 63.2039 87.1998 63.6872 86.8435 64.0435C86.4872 64.3998 86.0039 64.6 85.5 64.6H9.5C8.99609 64.6 8.51282 64.3998 8.1565 64.0435C7.80018 63.6872 7.6 63.2039 7.6 62.7ZM15.9866 95H79.0134L86.6134 102.6H8.3866L15.9866 95ZM5.7 110.2V106.4H89.3V110.2H5.7Z" fill="url(#paint0_linear_1_53)"/>
<path d="M17.1 96.9H20.9V100.7H17.1V96.9Z" fill="url(#paint1_linear_1_53)"/>
<path d="M24.7 96.9H28.5V100.7H24.7V96.9Z" fill="url(#paint2_linear_1_53)"/>
<path d="M66.5 96.9H70.3V100.7H66.5V96.9Z" fill="url(#paint3_linear_1_53)"/>
<path d="M32.3 96.9H62.7V100.7H32.3V96.9Z" fill="url(#paint4_linear_1_53)"/>
<path d="M74.1 96.9H77.9V100.7H74.1V96.9Z" fill="url(#paint5_linear_1_53)"/>
<path d="M76 58.9H79.8V62.7H76V58.9Z" fill="url(#paint6_linear_1_53)"/>
<path d="M47.5 45.6C52.0094 45.6 56.4176 44.2628 60.167 41.7575C63.9165 39.2522 66.8388 35.6913 68.5645 31.5252C70.2901 27.359 70.7417 22.7747 69.8619 18.352C68.9822 13.9292 66.8107 9.86661 63.622 6.67797C60.4334 3.48934 56.3708 1.31785 51.9481 0.438106C47.5253 -0.441637 42.941 0.00987892 38.7748 1.73556C34.6087 3.46123 31.0478 6.38357 28.5425 10.133C26.0372 13.8824 24.7 18.2906 24.7 22.8C24.7066 28.8449 27.1108 34.6404 31.3852 38.9148C35.6596 43.1892 41.4551 45.5935 47.5 45.6V45.6ZM28.5969 24.7H36.1456C36.237 27.4465 36.5914 30.1779 37.2039 32.8567C35.8163 33.5569 34.5053 34.3993 33.2918 35.3704C30.6415 32.3973 28.9983 28.6627 28.5969 24.7V24.7ZM40.0178 40.2591C38.6361 39.656 37.3312 38.8906 36.1304 37.9791C36.8224 37.4581 37.5493 36.9852 38.3059 36.5636C38.7647 37.8442 39.3377 39.081 40.0178 40.2591V40.2591ZM41.8361 35.0569C45.5281 33.9312 49.4719 33.9312 53.1639 35.0569C51.6667 39.2331 49.5159 41.8 47.5 41.8C45.4841 41.8 43.3333 39.2331 41.8361 35.0569V35.0569ZM56.6941 36.5769C57.4506 36.9987 58.1775 37.4717 58.8696 37.9924C57.6689 38.9039 56.3639 39.6693 54.9822 40.2724C55.663 39.0927 56.236 37.8539 56.6941 36.5712V36.5769ZM54.9841 5.34661C56.3658 5.9497 57.6708 6.71508 58.8715 7.62661C58.1795 8.1476 57.4527 8.62054 56.696 9.04211C56.2369 7.75947 55.6633 6.52074 54.9822 5.34091L54.9841 5.34661ZM53.1658 10.5488C49.4738 11.6745 45.53 11.6745 41.838 10.5488C43.3333 6.36691 45.4841 3.80001 47.5 3.80001C49.5159 3.80001 51.6667 6.36691 53.1639 10.5431L53.1658 10.5488ZM38.3078 9.02881C37.5513 8.607 36.8244 8.13407 36.1323 7.61331C37.3331 6.70178 38.638 5.9364 40.0197 5.33331C39.3385 6.51113 38.7649 7.74797 38.3059 9.02881H38.3078ZM40.8063 14.2082C42.9761 14.8686 45.232 15.2029 47.5 15.2C49.7687 15.2037 52.0254 14.8695 54.1956 14.2082C54.675 16.4098 54.963 18.6488 55.0563 20.9H39.9437C40.0371 18.6488 40.325 16.4098 40.8044 14.2082H40.8063ZM55.0563 24.7C54.9631 26.9519 54.6751 29.1915 54.1956 31.3937C49.8286 30.0799 45.1715 30.0799 40.8044 31.3937C40.3249 29.1915 40.0369 26.9519 39.9437 24.7H55.0563ZM61.7063 35.3704C60.4922 34.4002 59.1812 33.5578 57.7942 32.8567C58.4074 30.1779 58.7624 27.4465 58.8544 24.7H66.4031C66.0017 28.6627 64.3586 32.3973 61.7082 35.3704H61.7063ZM66.4031 20.9H58.8544C58.763 18.1535 58.4086 15.4222 57.7961 12.7433C59.1837 12.0431 60.4947 11.2007 61.7082 10.2296C64.3586 13.2028 66.0017 16.9373 66.4031 20.9ZM33.2918 10.2296C34.5059 11.1998 35.8169 12.0422 37.2039 12.7433C36.5914 15.4222 36.237 18.1535 36.1456 20.9H28.5969C28.9983 16.9373 30.6415 13.2028 33.2918 10.2296V10.2296Z" fill="url(#paint7_linear_1_53)"/>
<defs>
<linearGradient id="paint0_linear_1_53" x1="46.55" y1="7.60001" x2="46.55" y2="114" gradientUnits="userSpaceOnUse">
<stop stop-color="#0057FF"/>
<stop offset="1" stop-color="#0075FF"/>
</linearGradient>
<linearGradient id="paint1_linear_1_53" x1="19" y1="96.9" x2="19" y2="100.7" gradientUnits="userSpaceOnUse">
<stop stop-color="#0057FF"/>
<stop offset="1" stop-color="#0075FF"/>
</linearGradient>
<linearGradient id="paint2_linear_1_53" x1="26.6" y1="96.9" x2="26.6" y2="100.7" gradientUnits="userSpaceOnUse">
<stop stop-color="#0057FF"/>
<stop offset="1" stop-color="#0075FF"/>
</linearGradient>
<linearGradient id="paint3_linear_1_53" x1="68.4" y1="96.9" x2="68.4" y2="100.7" gradientUnits="userSpaceOnUse">
<stop stop-color="#0057FF"/>
<stop offset="1" stop-color="#0075FF"/>
</linearGradient>
<linearGradient id="paint4_linear_1_53" x1="47.5" y1="96.9" x2="47.5" y2="100.7" gradientUnits="userSpaceOnUse">
<stop stop-color="#0057FF"/>
<stop offset="1" stop-color="#0075FF"/>
</linearGradient>
<linearGradient id="paint5_linear_1_53" x1="76" y1="96.9" x2="76" y2="100.7" gradientUnits="userSpaceOnUse">
<stop stop-color="#0057FF"/>
<stop offset="1" stop-color="#0075FF"/>
</linearGradient>
<linearGradient id="paint6_linear_1_53" x1="77.9" y1="58.9" x2="77.9" y2="62.7" gradientUnits="userSpaceOnUse">
<stop stop-color="#0057FF"/>
<stop offset="1" stop-color="#0075FF"/>
</linearGradient>
<linearGradient id="paint7_linear_1_53" x1="47.5" y1="0" x2="47.5" y2="45.6" gradientUnits="userSpaceOnUse">
<stop stop-color="#0057FF"/>
<stop offset="1" stop-color="#0075FF"/>
</linearGradient>
</defs>
</svg>
