<svg width="329" height="86" viewBox="0 0 329 86" fill="none" xmlns="http://www.w3.org/2000/svg">
<path d="M71.056 27.6896V20.706H78.6716V27.6896H71.056ZM71.056 67V32.872H78.6716V67H71.056ZM111.742 67V50.568C111.742 49.4936 111.669 48.3033 111.521 46.9972C111.374 45.6911 111.026 44.4376 110.478 43.2368C109.952 42.0149 109.151 41.0143 108.077 40.2348C107.024 39.4553 105.591 39.0656 103.779 39.0656C102.81 39.0656 101.852 39.2236 100.904 39.5396C99.9557 39.8556 99.0919 40.4033 98.3125 41.1828C97.5541 41.9412 96.9432 42.9945 96.4797 44.3428C96.0162 45.67 95.7845 47.3764 95.7845 49.462L91.2657 47.5344C91.2657 44.6272 91.8239 41.9939 92.9405 39.6344C94.0781 37.2749 95.7423 35.4 97.9333 34.0096C100.124 32.5981 102.821 31.8924 106.023 31.8924C108.551 31.8924 110.636 32.3137 112.28 33.1564C113.923 33.9991 115.229 35.0735 116.198 36.3796C117.167 37.6857 117.883 39.0761 118.347 40.5508C118.81 42.0255 119.105 43.4264 119.232 44.7536C119.379 46.0597 119.453 47.1236 119.453 47.9452V67H111.742ZM88.0741 67V32.872H94.8681V43.458H95.7845V67H88.0741ZM147.702 67C145.448 67.4213 143.236 67.6004 141.066 67.5372C138.917 67.4951 136.989 67.1053 135.283 66.368C133.577 65.6096 132.281 64.4193 131.396 62.7972C130.617 61.3225 130.206 59.8163 130.164 58.2784C130.122 56.7405 130.101 55.0025 130.101 53.0644V23.392H137.685V52.622C137.685 53.9913 137.695 55.1921 137.716 56.2244C137.758 57.2567 137.98 58.0993 138.38 58.7524C139.138 60.0164 140.35 60.7221 142.014 60.8696C143.678 61.0171 145.574 60.9328 147.702 60.6168V67ZM123.907 38.8444V32.872H147.702V38.8444H123.907ZM168.828 67.948C165.373 67.948 162.339 67.2001 159.727 65.7044C157.115 64.2087 155.071 62.1336 153.597 59.4792C152.143 56.8248 151.416 53.7701 151.416 50.3152C151.416 46.5864 152.133 43.3527 153.565 40.614C154.998 37.8543 156.988 35.716 159.537 34.1992C162.087 32.6824 165.036 31.924 168.385 31.924C171.925 31.924 174.927 32.7561 177.391 34.4204C179.877 36.0636 181.721 38.3915 182.921 41.404C184.122 44.4165 184.575 47.9663 184.28 52.0532H176.728V49.2724C176.707 45.5647 176.054 42.8576 174.769 41.1512C173.484 39.4448 171.461 38.5916 168.701 38.5916C165.584 38.5916 163.266 39.5607 161.749 41.4988C160.233 43.4159 159.474 46.2283 159.474 49.936C159.474 53.3909 160.233 56.0664 161.749 57.9624C163.266 59.8584 165.478 60.8064 168.385 60.8064C170.26 60.8064 171.872 60.3956 173.22 59.574C174.59 58.7313 175.643 57.52 176.38 55.94L183.901 58.2152C182.595 61.2909 180.573 63.682 177.834 65.3884C175.116 67.0948 172.114 67.948 168.828 67.948ZM157.073 52.0532V46.302H180.551V52.0532H157.073ZM191.331 67V32.872H198.062V41.1828L197.24 40.1084C197.662 38.9708 198.22 37.9385 198.915 37.0116C199.631 36.0636 200.485 35.2841 201.475 34.6732C202.317 34.1044 203.244 33.662 204.255 33.346C205.288 33.0089 206.341 32.8088 207.415 32.7456C208.49 32.6613 209.533 32.7035 210.544 32.872V39.982C209.533 39.6871 208.363 39.5923 207.036 39.6976C205.73 39.8029 204.55 40.1716 203.497 40.8036C202.444 41.3724 201.58 42.0992 200.906 42.984C200.253 43.8688 199.768 44.88 199.452 46.0176C199.136 47.1341 198.978 48.3455 198.978 49.6516V67H191.331ZM240.179 67V50.568C240.179 49.4936 240.105 48.3033 239.958 46.9972C239.811 45.6911 239.463 44.4376 238.915 43.2368C238.389 42.0149 237.588 41.0143 236.514 40.2348C235.46 39.4553 234.028 39.0656 232.216 39.0656C231.247 39.0656 230.288 39.2236 229.34 39.5396C228.392 39.8556 227.529 40.4033 226.749 41.1828C225.991 41.9412 225.38 42.9945 224.916 44.3428C224.453 45.67 224.221 47.3764 224.221 49.462L219.702 47.5344C219.702 44.6272 220.261 41.9939 221.377 39.6344C222.515 37.2749 224.179 35.4 226.37 34.0096C228.561 32.5981 231.257 31.8924 234.46 31.8924C236.988 31.8924 239.073 32.3137 240.716 33.1564C242.36 33.9991 243.666 35.0735 244.635 36.3796C245.604 37.6857 246.32 39.0761 246.784 40.5508C247.247 42.0255 247.542 43.4264 247.668 44.7536C247.816 46.0597 247.89 47.1236 247.89 47.9452V67H240.179ZM216.511 67V32.872H223.305V43.458H224.221V67H216.511ZM271.096 67.948C267.641 67.948 264.607 67.2001 261.995 65.7044C259.383 64.2087 257.339 62.1336 255.865 59.4792C254.411 56.8248 253.684 53.7701 253.684 50.3152C253.684 46.5864 254.401 43.3527 255.833 40.614C257.266 37.8543 259.256 35.716 261.805 34.1992C264.355 32.6824 267.304 31.924 270.653 31.924C274.193 31.924 277.195 32.7561 279.659 34.4204C282.145 36.0636 283.989 38.3915 285.189 41.404C286.39 44.4165 286.843 47.9663 286.548 52.0532H278.996V49.2724C278.975 45.5647 278.322 42.8576 277.037 41.1512C275.752 39.4448 273.729 38.5916 270.969 38.5916C267.852 38.5916 265.534 39.5607 264.017 41.4988C262.501 43.4159 261.742 46.2283 261.742 49.936C261.742 53.3909 262.501 56.0664 264.017 57.9624C265.534 59.8584 267.746 60.8064 270.653 60.8064C272.528 60.8064 274.14 60.3956 275.488 59.574C276.858 58.7313 277.911 57.52 278.648 55.94L286.169 58.2152C284.863 61.2909 282.841 63.682 280.102 65.3884C277.384 67.0948 274.382 67.948 271.096 67.948ZM259.341 52.0532V46.302H282.819V52.0532H259.341ZM308.672 67.948C305.259 67.948 302.278 67.1791 299.729 65.6412C297.18 64.1033 295.2 61.9861 293.789 59.2896C292.398 56.572 291.703 53.4541 291.703 49.936C291.703 46.3547 292.419 43.2157 293.852 40.5192C295.284 37.8227 297.275 35.716 299.824 34.1992C302.373 32.6824 305.323 31.924 308.672 31.924C312.106 31.924 315.098 32.6929 317.647 34.2308C320.196 35.7687 322.176 37.8964 323.587 40.614C324.999 43.3105 325.705 46.4179 325.705 49.936C325.705 53.4752 324.988 56.6036 323.556 59.3212C322.144 62.0177 320.164 64.1349 317.615 65.6728C315.066 67.1896 312.085 67.948 308.672 67.948ZM308.672 60.8064C311.706 60.8064 313.96 59.7952 315.435 57.7728C316.909 55.7504 317.647 53.1381 317.647 49.936C317.647 46.6285 316.899 43.9952 315.403 42.036C313.907 40.0557 311.664 39.0656 308.672 39.0656C306.629 39.0656 304.943 39.5291 303.616 40.456C302.31 41.3619 301.341 42.6364 300.709 44.2796C300.077 45.9017 299.761 47.7872 299.761 49.936C299.761 53.2435 300.509 55.8873 302.005 57.8676C303.521 59.8268 305.744 60.8064 308.672 60.8064Z" fill="black"/>
<path d="M48 35L26 46L4 35L26 24L48 35Z" stroke="url(#paint0_linear_1_15)" stroke-width="7.3379" stroke-linecap="round" stroke-linejoin="round"/>
<path d="M48 56.3475L26 67.3475L4 56.3475L26 45.3475L48 56.3475Z" stroke="url(#paint1_linear_1_15)" stroke-width="7.3379" stroke-linecap="round" stroke-linejoin="round"/>
<defs>
<linearGradient id="paint0_linear_1_15" x1="37" y1="24" x2="15" y2="46" gradientUnits="userSpaceOnUse">
<stop stop-color="#0057FF"/>
<stop offset="1" stop-color="#0075FF"/>
</linearGradient>
<linearGradient id="paint1_linear_1_15" x1="37" y1="45.3475" x2="15" y2="67.3475" gradientUnits="userSpaceOnUse">
<stop stop-color="#0057FF"/>
<stop offset="1" stop-color="#0075FF"/>
</linearGradient>
</defs>
</svg>
